<svg width="399" height="91" viewBox="0 0 399 91" fill="none" xmlns="http://www.w3.org/2000/svg">
<path d="M26.4524 0.068641C27.1788 0.065648 27.1788 0.065648 27.9183 0.0626551C29.5157 0.0566692 31.1099 0.0566692 32.7073 0.0536763C33.2594 0.0536763 33.8116 0.0536763 34.3638 0.0536763C37.2661 0.0476904 40.1651 0.0446975 43.0641 0.0446975C45.7494 0.0446975 48.4348 0.0387116 51.1201 0.0297328C53.4406 0.020754 55.7578 0.0177611 58.0783 0.0177611C59.4555 0.0177611 60.836 0.0177611 62.2164 0.0117752C76.0934 -0.0420976 76.0934 -0.0420974 82.4699 3.08552C84.2218 4.0672 85.7567 5.17758 87.2687 6.4406C87.6631 6.74289 88.0542 7.04517 88.4585 7.35644C90.9565 9.71487 92.5736 13.0281 93.6254 16.1227C94.0691 17.7539 94.2137 19.2953 94.2203 20.9743C94.2236 21.4322 94.2269 21.8871 94.2302 22.357C94.2302 22.8598 94.2335 23.3656 94.2335 23.8685C94.2368 24.3982 94.24 24.931 94.2433 25.4637C94.2499 27.2086 94.2565 28.9535 94.2598 30.7013C94.2631 31.3029 94.2631 31.9045 94.2663 32.5091C94.2729 35.0171 94.2795 37.5252 94.2828 40.0363C94.2893 43.6188 94.2992 47.2044 94.3189 50.7899C94.3321 53.316 94.3386 55.842 94.3386 58.371C94.3386 59.8765 94.3452 61.3819 94.3551 62.8874C94.3649 64.306 94.3682 65.7277 94.3616 67.1463C94.3616 67.9065 94.3715 68.6697 94.3781 69.4299C94.3551 73.5721 93.3033 77.3193 91.1603 80.9827C88.8595 84.3228 85.8619 86.9895 82.082 88.9139C78.1017 90.6738 74.2495 90.9731 69.8715 90.9611C69.3226 90.9641 68.7704 90.9671 68.2215 90.9701C66.7391 90.9731 65.2535 90.9731 63.7711 90.9731C62.5287 90.9701 61.2863 90.9731 60.0438 90.9761C57.1087 90.9791 54.1736 90.9791 51.2384 90.9761C48.2211 90.9731 45.2038 90.9761 42.1865 90.985C39.5866 90.991 36.9834 90.991 34.3835 90.991C32.8355 90.991 31.2874 90.991 29.7393 90.997C28.2799 91 26.8238 91 25.3645 90.994C24.5822 90.991 23.8 90.997 23.0177 91C18.9716 90.9761 15.3331 90.3026 11.7471 88.5488C8.25981 86.6423 5.28194 83.9666 3.2704 80.7402C1.44292 77.5438 0.131473 74.3383 0.118326 70.7169C0.118326 70.2739 0.11504 69.831 0.111754 69.3731C0.111754 68.8882 0.111753 68.4033 0.108466 67.9035C0.108466 67.3887 0.10518 66.871 0.101893 66.3532C0.0953198 64.6562 0.0920327 62.9592 0.0887459 61.2622C0.0887459 60.6756 0.0854583 60.092 0.0854583 59.5053C0.0788847 56.7489 0.0755975 53.9953 0.0723107 51.2389C0.0690239 48.0693 0.0591653 44.8998 0.0460179 41.7273C0.0361575 39.2731 0.0328696 36.8159 0.0295828 34.3587C0.0295828 32.8952 0.0262964 31.4316 0.0197227 29.9681C0.0098622 28.5883 0.0098608 27.2056 0.0131476 25.8258C0.0131476 25.0866 0.00657366 24.3473 0 23.6081C0.0230078 19.1905 0.864438 15.165 3.17508 11.2532C4.03623 9.94533 4.9664 8.77509 6.08393 7.63778C6.29428 7.4163 6.50793 7.19781 6.72486 6.97035C9.60412 4.154 13.098 2.28042 17.0784 1.04434C20.26 0.25121 23.1623 0.065648 26.4524 0.068641Z" fill="#009081"></path>
<path d="M57.8198 58.6793H36.476C35.6962 58.6793 35.064 59.3115 35.064 60.0914C35.064 60.8713 35.6962 61.5035 36.476 61.5035H57.8198C58.5996 61.5035 59.2318 60.8713 59.2318 60.0914C59.2318 59.3115 58.5996 58.6793 57.8198 58.6793Z" fill="#00FFE0"></path>
<path d="M37.9284 51.5633L31.726 43.8353C31.7097 43.815 31.6769 43.8265 31.6769 43.8525V52.1221C31.6769 53.2306 30.7783 54.1293 29.6698 54.1293C28.5612 54.1293 27.6626 53.2306 27.6626 52.1221V38.3891C27.6626 37.4638 28.4127 36.7137 29.3379 36.7137C29.8338 36.7137 30.3043 36.9335 30.6226 37.3137L38.3913 46.5948C38.6076 46.8532 38.8929 47.0449 39.214 47.1474C39.3111 47.1938 39.4271 47.1705 39.4987 47.0902L46.092 39.6881C46.355 39.3929 46.7315 39.2241 47.1268 39.2241C47.514 39.2241 47.8835 39.3861 48.1459 39.6708L54.9132 47.0149C55.0129 47.1232 55.1872 47.1113 55.2713 46.9905L64.1544 37.2159C64.4451 36.8961 64.8572 36.7137 65.2893 36.7137C66.1362 36.7137 66.8228 37.4003 66.8228 38.2472V52.1631C66.8228 53.249 65.9425 54.1293 64.8566 54.1293C63.7707 54.1293 62.8904 53.249 62.8904 52.1631V44.0094C62.8904 43.9303 62.7912 43.8948 62.7409 43.9559L56.3506 51.7308C56.0822 52.0573 55.6818 52.2465 55.2592 52.2465C54.8506 52.2465 54.4619 52.0695 54.1936 51.7612L47.3171 43.8597C47.2766 43.8131 47.2054 43.8098 47.1608 43.8525L43.9657 47.8142L40.7441 51.6032C40.3971 52.0113 39.8884 52.2465 39.3527 52.2465C38.7989 52.2465 38.275 51.9952 37.9284 51.5633Z" fill="white"></path>
<path d="M391.67 65.4925C391.476 64.7445 391.321 63.9218 391.204 63.0243C391.127 62.1267 391.088 61.0422 391.088 59.7707H390.855V46.1955C390.855 44.6996 390.409 43.5777 389.517 42.8298C388.664 42.0444 387.345 41.6517 385.561 41.6517C383.816 41.6517 382.419 41.9696 381.372 42.6054C380.364 43.2037 379.743 44.0826 379.51 45.2419H372.471C372.781 42.5867 374.1 40.4363 376.427 38.7909C378.754 37.1454 381.876 36.3226 385.794 36.3226C389.866 36.3226 392.95 37.2202 395.044 39.0152C397.138 40.7729 398.186 43.372 398.186 46.8126V59.7707C398.186 60.6682 398.244 61.5845 398.36 62.5194C398.515 63.4543 398.729 64.4454 399 65.4925H391.67ZM381.372 66.0535C378.386 66.0535 376 65.3429 374.216 63.9218C372.471 62.4633 371.598 60.5187 371.598 58.0878C371.598 55.47 372.587 53.3945 374.565 51.8612C376.543 50.3279 379.336 49.2995 382.943 48.7759L392.193 47.4296V51.9173L384.165 53.0953C382.419 53.3571 381.101 53.8245 380.209 54.4977C379.355 55.1708 378.929 56.1058 378.929 57.3025C378.929 58.387 379.336 59.2284 380.15 59.8268C380.965 60.3878 382.09 60.6682 383.525 60.6682C385.619 60.6682 387.364 60.1634 388.761 59.1537C390.157 58.1439 390.855 56.9098 390.855 55.4513L391.67 59.7707C390.894 61.8276 389.614 63.3982 387.83 64.4828C386.085 65.5299 383.932 66.0535 381.372 66.0535Z" fill="#009081"></path>
<path d="M351.659 65.4926L339.791 36.8837H347.703L357.186 63.1926H353.288L362.771 36.8837H370.451L358.524 65.4926H351.659Z" fill="#009081"></path>
<path d="M323.034 66.0535C319.892 66.0535 317.119 65.4177 314.714 64.1462C312.348 62.8747 310.506 61.117 309.187 58.8732C307.869 56.5919 307.209 53.9928 307.209 51.0758C307.209 48.1589 307.869 45.5972 309.187 43.3907C310.506 41.1843 312.348 39.464 314.714 38.2299C317.119 36.9584 319.892 36.3226 323.034 36.3226C326.214 36.3226 328.987 36.9584 331.353 38.2299C333.719 39.464 335.561 41.1843 336.88 43.3907C338.199 45.5972 338.858 48.1589 338.858 51.0758C338.858 53.9928 338.179 56.5919 336.822 58.8732C335.503 61.117 333.661 62.8747 331.295 64.1462C328.929 65.4177 326.175 66.0535 323.034 66.0535ZM323.034 60.3878C324.585 60.3878 325.981 60.0138 327.223 59.2658C328.464 58.4805 329.433 57.396 330.131 56.0123C330.83 54.5912 331.179 52.927 331.179 51.0198C331.179 48.215 330.403 46.0085 328.852 44.4004C327.339 42.7924 325.4 41.9883 323.034 41.9883C320.668 41.9883 318.709 42.7924 317.158 44.4004C315.606 46.0085 314.831 48.215 314.831 51.0198C314.831 52.927 315.18 54.5912 315.878 56.0123C316.615 57.396 317.584 58.4805 318.787 59.2658C320.028 60.0138 321.444 60.3878 323.034 60.3878Z" fill="#009081"></path>
<path d="M273.914 65.4925V36.8836H281.07V43.6151H281.244V65.4925H273.914ZM294.741 65.4925V47.4296C294.741 45.6719 294.276 44.3443 293.345 43.4468C292.414 42.5493 291.057 42.1005 289.273 42.1005C287.721 42.1005 286.325 42.4371 285.084 43.1102C283.881 43.7834 282.931 44.7183 282.233 45.915C281.574 47.1117 281.244 48.4954 281.244 50.0661L280.488 43.2224C281.496 41.1282 282.97 39.464 284.909 38.2299C286.849 36.9584 289.176 36.3226 291.891 36.3226C295.11 36.3226 297.612 37.2015 299.396 38.9591C301.219 40.7168 302.13 43.0541 302.13 45.9711V65.4925H294.741Z" fill="#009081"></path>
<path d="M259.973 65.4925C259.779 64.7445 259.624 63.9218 259.508 63.0243C259.43 62.1267 259.391 61.0422 259.391 59.7707H259.159V46.1955C259.159 44.6996 258.713 43.5777 257.821 42.8298C256.967 42.0444 255.649 41.6517 253.864 41.6517C252.119 41.6517 250.723 41.9696 249.676 42.6054C248.667 43.2037 248.047 44.0826 247.814 45.2419H240.774C241.085 42.5867 242.403 40.4363 244.73 38.7909C247.058 37.1454 250.18 36.3226 254.097 36.3226C258.17 36.3226 261.253 37.2202 263.347 39.0152C265.442 40.7729 266.489 43.372 266.489 46.8126V59.7707C266.489 60.6682 266.547 61.5845 266.664 62.5194C266.819 63.4543 267.032 64.4454 267.304 65.4925H259.973ZM249.676 66.0535C246.689 66.0535 244.304 65.3429 242.52 63.9218C240.774 62.4633 239.902 60.5187 239.902 58.0878C239.902 55.47 240.891 53.3945 242.869 51.8612C244.847 50.3279 247.639 49.2995 251.246 48.7759L260.497 47.4296V51.9173L252.468 53.0953C250.723 53.3571 249.404 53.8245 248.512 54.4977C247.659 55.1708 247.232 56.1058 247.232 57.3025C247.232 58.387 247.639 59.2284 248.454 59.8268C249.268 60.3878 250.393 60.6682 251.828 60.6682C253.923 60.6682 255.668 60.1634 257.064 59.1537C258.46 58.1439 259.159 56.9098 259.159 55.4513L259.973 59.7707C259.197 61.8276 257.917 63.3982 256.133 64.4828C254.388 65.5299 252.235 66.0535 249.676 66.0535Z" fill="black"></path>
<path d="M222.627 66.0535C219.641 66.0535 217.003 65.4177 214.715 64.1462C212.465 62.8747 210.681 61.117 209.363 58.8732C208.083 56.5919 207.443 54.0115 207.443 51.1319C207.443 48.2524 208.083 45.7093 209.363 43.5029C210.681 41.2591 212.465 39.5014 214.715 38.2299C217.003 36.9584 219.641 36.3226 222.627 36.3226C225.071 36.3226 227.281 36.7714 229.259 37.6689C231.238 38.5291 232.867 39.7632 234.146 41.3713C235.426 42.9419 236.241 44.7744 236.59 46.8687H229.55C229.124 45.3354 228.309 44.1387 227.107 43.2785C225.905 42.4184 224.45 41.9883 222.744 41.9883C221.153 41.9883 219.776 42.3623 218.613 43.1102C217.488 43.8582 216.615 44.924 215.995 46.3077C215.374 47.6914 215.064 49.2995 215.064 51.1319C215.064 53.0018 215.374 54.6286 215.995 56.0123C216.615 57.396 217.507 58.4805 218.671 59.2658C219.835 60.0138 221.192 60.3878 222.744 60.3878C224.45 60.3878 225.905 59.9577 227.107 59.0976C228.309 58.2374 229.124 57.0407 229.55 55.5074H236.59C236.241 57.6017 235.407 59.4528 234.088 61.0609C232.808 62.6316 231.179 63.8657 229.201 64.7632C227.262 65.6234 225.071 66.0535 222.627 66.0535Z" fill="black"></path>
<path d="M189.458 66.0535C186.317 66.0535 183.563 65.4177 181.197 64.1462C178.87 62.8747 177.047 61.117 175.728 58.8732C174.448 56.6293 173.808 54.0489 173.808 51.1319C173.808 48.215 174.448 45.6532 175.728 43.4468C177.047 41.203 178.87 39.464 181.197 38.2299C183.524 36.9584 186.239 36.3226 189.342 36.3226C192.29 36.3226 194.849 36.921 197.021 38.1177C199.193 39.277 200.881 40.9225 202.083 43.0541C203.285 45.1858 203.887 47.6727 203.887 50.5149C203.887 51.0385 203.867 51.5246 203.828 51.9734C203.79 52.4221 203.731 52.8709 203.654 53.3197H178.346V48.3832H198.011L196.498 49.7295C196.498 47.0369 195.858 45.0175 194.578 43.6712C193.298 42.3249 191.514 41.6517 189.226 41.6517C186.743 41.6517 184.765 42.4745 183.291 44.12C181.856 45.7654 181.139 48.1402 181.139 51.2441C181.139 54.3107 181.856 56.6667 183.291 58.3122C184.765 59.9203 186.84 60.7243 189.516 60.7243C191.068 60.7243 192.425 60.4439 193.589 59.8829C194.753 59.3219 195.606 58.4618 196.149 57.3025H203.072C202.102 59.9951 200.454 62.1267 198.127 63.6974C195.839 65.2681 192.949 66.0535 189.458 66.0535Z" fill="black"></path>
<path d="M123.575 65.4926V25.1035H135.327L148.126 64.0341H143.996L156.795 25.1035H168.605V65.4926H161.158V27.5156H162.38L149.93 65.4926H141.843L129.509 27.8522H130.673V65.4926H123.575Z" fill="black"></path>
</svg>